<svg width="24" height="24" viewBox="0 0 24 24" fill="none" xmlns="http://www.w3.org/2000/svg">
<circle cx="12" cy="12" r="11.5" stroke="#7B809A"/>
<path d="M12.8438 9.60352V17H10.8682V9.60352H12.8438ZM10.7451 7.67578C10.7451 7.38867 10.8454 7.15169 11.0459 6.96484C11.2464 6.77799 11.5153 6.68457 11.8525 6.68457C12.1852 6.68457 12.4518 6.77799 12.6523 6.96484C12.8574 7.15169 12.96 7.38867 12.96 7.67578C12.96 7.96289 12.8574 8.19987 12.6523 8.38672C12.4518 8.57357 12.1852 8.66699 11.8525 8.66699C11.5153 8.66699 11.2464 8.57357 11.0459 8.38672C10.8454 8.19987 10.7451 7.96289 10.7451 7.67578Z" fill="#7B809A"/>
</svg>
