<svg width="15" height="15" viewBox="0 0 15 15" fill="none" xmlns="http://www.w3.org/2000/svg">
<path d="M7.5 0C3.375 0 0 3.3675 0 7.515C0 11.265 2.745 14.3775 6.33 14.94V9.69H4.425V7.515H6.33V5.8575C6.33 3.975 7.4475 2.94 9.165 2.94C9.9825 2.94 10.8375 3.0825 10.8375 3.0825V4.935H9.8925C8.9625 4.935 8.67 5.5125 8.67 6.105V7.515H10.755L10.4175 9.69H8.67V14.94C10.4373 14.6609 12.0467 13.7591 13.2074 12.3975C14.3682 11.036 15.004 9.30423 15 7.515C15 3.3675 11.625 0 7.5 0Z" fill="#344767"/>
</svg>
