<svg width="12" height="12" viewBox="0 0 12 12" fill="none" xmlns="http://www.w3.org/2000/svg">
<path d="M6 4.875H6.75V7.125H6V4.875ZM2.25 5.625H3V4.875H2.25V5.625ZM12 1.5V10.5C12 10.8978 11.842 11.2794 11.5607 11.5607C11.2794 11.842 10.8978 12 10.5 12H1.5C1.10218 12 0.720644 11.842 0.43934 11.5607C0.158035 11.2794 0 10.8978 0 10.5V1.5C0 1.10218 0.158035 0.720644 0.43934 0.43934C0.720644 0.158035 1.10218 0 1.5 0H10.5C10.8978 0 11.2794 0.158035 11.5607 0.43934C11.842 0.720644 12 1.10218 12 1.5ZM4.125 4.875C4.125 4.57663 4.00647 4.29048 3.7955 4.0795C3.58452 3.86853 3.29837 3.75 3 3.75H1.125V8.25H2.25V6.75H3C3.29837 6.75 3.58452 6.63147 3.7955 6.4205C4.00647 6.20952 4.125 5.92337 4.125 5.625V4.875ZM7.875 4.875C7.875 4.57663 7.75647 4.29048 7.5455 4.0795C7.33452 3.86853 7.04837 3.75 6.75 3.75H4.875V8.25H6.75C7.04837 8.25 7.33452 8.13147 7.5455 7.9205C7.75647 7.70952 7.875 7.42337 7.875 7.125V4.875ZM10.875 3.75H8.625V8.25H9.75V6.75H10.875V5.625H9.75V4.875H10.875V3.75Z" fill="#344767"/>
</svg>
