<svg width="16" height="13" viewBox="0 0 16 13" fill="none" xmlns="http://www.w3.org/2000/svg">
<path d="M15.69 1.5C15.1125 1.7625 14.49 1.935 13.845 2.0175C14.505 1.62 15.015 0.99 15.255 0.2325C14.6325 0.6075 13.9425 0.87 13.215 1.02C12.6225 0.375 11.79 0 10.845 0C9.0825 0 7.6425 1.44 7.6425 3.2175C7.6425 3.4725 7.6725 3.72 7.725 3.9525C5.055 3.8175 2.6775 2.535 1.095 0.5925C0.8175 1.065 0.66 1.62 0.66 2.205C0.66 3.3225 1.2225 4.3125 2.0925 4.875C1.56 4.875 1.065 4.725 0.63 4.5C0.63 4.5 0.63 4.5 0.63 4.5225C0.63 6.0825 1.74 7.3875 3.21 7.68C2.94 7.755 2.655 7.7925 2.3625 7.7925C2.16 7.7925 1.9575 7.77 1.7625 7.7325C2.1675 9 3.345 9.945 4.7625 9.9675C3.6675 10.8375 2.28 11.3475 0.765 11.3475C0.51 11.3475 0.255 11.3325 0 11.3025C1.425 12.2175 3.12 12.75 4.935 12.75C10.845 12.75 14.0925 7.845 14.0925 3.5925C14.0925 3.45 14.0925 3.315 14.085 3.1725C14.715 2.7225 15.255 2.1525 15.69 1.5Z" fill="#16C0E8"/>
</svg>
